<svg width="164" height="22" viewBox="0 0 164 22" fill="none" xmlns="http://www.w3.org/2000/svg">
<path d="M154.231 14.7221L150.256 19.8596C149.966 20.2339 149.52 20.4529 149.047 20.4529H144.922C144.541 20.4529 144.326 20.0146 144.559 19.713L151.326 10.9676L144.559 2.22234C144.326 1.92072 144.54 1.48242 144.922 1.48242L149.047 1.48244C149.52 1.48245 149.966 1.70151 150.256 2.07576L154.231 7.21306L158.206 2.07579C158.496 1.70153 158.942 1.48246 159.415 1.48246L163.54 1.48245C163.922 1.48244 164.136 1.92074 163.903 2.22236L157.136 10.9676L163.903 19.7126C164.136 20.0142 163.922 20.4525 163.54 20.4525H159.415C158.942 20.4525 158.496 20.2334 158.206 19.8592L154.231 14.7221Z" fill="#0B8888"/>
<path d="M135.118 11.654C135.13 8.56921 137.633 6.07199 140.719 6.07199H141.235C141.572 6.07199 141.846 5.79802 141.846 5.46005V2.09437C141.846 1.7564 141.572 1.48242 141.235 1.48242L140.719 1.48242C138.65 1.48242 136.725 2.09934 135.118 3.15932V2.09437C135.118 1.75641 134.845 1.48243 134.507 1.48243L131.143 1.48243C130.805 1.48243 130.531 1.75641 130.531 2.09437V11.6467C130.531 11.6562 130.531 11.6657 130.531 11.6752L130.531 19.8407C130.531 20.1787 130.805 20.4527 131.143 20.4527L134.507 20.4527C134.845 20.4527 135.118 20.1787 135.118 19.8407L135.118 11.654Z" fill="#0B8888"/>
<path fill-rule="evenodd" clip-rule="evenodd" d="M113.659 12.4017C113.659 14.7151 115.489 16.4964 117.631 16.4964C119.773 16.4964 121.603 14.7151 121.603 12.4017L121.603 2.09379C121.603 1.75614 121.876 1.48242 122.214 1.48242L125.574 1.48242C125.912 1.48242 126.185 1.75614 126.185 2.09379L126.185 12.4017C126.185 17.1239 122.407 21.0461 117.631 21.0461C112.855 21.0461 109.076 17.1239 109.076 12.4017V2.09379C109.076 1.75614 109.35 1.48242 109.687 1.48242L113.048 1.48242C113.386 1.48242 113.659 1.75614 113.659 2.09379V12.4017Z" fill="#0B8888"/>
<path d="M103.307 6.63971C103.069 6.87839 102.684 6.87512 102.42 6.66406C100.262 4.93366 97.1017 5.0696 95.1005 7.07188C92.9536 9.22 92.9536 12.7028 95.1005 14.8509C97.1017 16.8532 100.262 16.9891 102.42 15.2587C102.684 15.0477 103.069 15.0444 103.307 15.2831L105.683 17.66C105.921 17.8987 105.922 18.2875 105.67 18.5115C101.712 22.025 95.6521 21.8853 91.861 18.0922C87.9249 14.1539 87.9249 7.76883 91.861 3.83062C95.6521 0.0375291 101.712 -0.102253 105.67 3.41127C105.922 3.63528 105.921 4.02411 105.683 4.26279L103.307 6.63971Z" fill="#0B8888"/>
<path d="M84.1799 6.63971C83.9413 6.87839 83.5563 6.87512 83.293 6.66406C81.1345 4.93366 77.9743 5.0696 75.9731 7.07188C73.8261 9.22 73.8261 12.7028 75.9731 14.8509C77.9743 16.8532 81.1345 16.9891 83.293 15.2587C83.5563 15.0477 83.9413 15.0444 84.1799 15.2831L86.5555 17.66C86.794 17.8987 86.7949 18.2875 86.5426 18.5115C82.5843 22.025 76.5246 21.8853 72.7336 18.0922C68.7975 14.1539 68.7975 7.76883 72.7336 3.83062C76.5246 0.0375289 82.5843 -0.102253 86.5426 3.41127C86.7949 3.63528 86.794 4.02411 86.5555 4.26278L84.1799 6.63971Z" fill="#0B8888"/>
<path fill-rule="evenodd" clip-rule="evenodd" d="M61.7571 19.8235C61.7571 20.161 62.0307 20.4347 62.3681 20.4347H65.7288C66.0663 20.4347 66.3399 20.161 66.3399 19.8235L66.3398 2.09931C66.3398 1.76177 66.0663 1.48813 65.7288 1.48813L62.3681 1.48813C62.0307 1.48813 61.7571 1.76177 61.7571 2.09931V2.90329C60.6104 1.66789 58.2867 0.876953 56.2578 0.876953C50.6897 0.876953 46.1758 5.39191 46.1758 10.9614C46.1758 16.5309 50.6897 21.0458 56.2578 21.0458C58.2867 21.0458 60.7092 20.156 61.7571 19.0195V19.8235ZM61.7571 10.9614C61.7571 7.92349 59.295 5.46079 56.2578 5.46079C53.2206 5.46079 50.7585 7.92349 50.7585 10.9614C50.7585 13.9993 53.2206 16.462 56.2578 16.462C59.295 16.462 61.7571 13.9993 61.7571 10.9614Z" fill="#0B8888"/>
<path fill-rule="evenodd" clip-rule="evenodd" d="M0 10.9614C0 4.90759 4.90759 9.28759e-09 10.9614 3.54563e-09L13.7576 8.93484e-10C14.2778 4.00027e-10 14.6996 0.42175 14.6996 0.942007V6.3656C14.6996 6.88586 14.2778 7.30761 13.7576 7.30761H9.61528C8.34079 7.30761 7.30761 8.34079 7.30761 9.61528L7.30761 12.3076C7.30761 13.582 8.34079 14.6152 9.61528 14.6152H13.7576C14.2778 14.6152 14.6996 15.037 14.6996 15.5572V20.9808C14.6996 21.5011 14.2778 21.9228 13.7576 21.9228H10.9614C4.90759 21.9228 0 17.0152 0 10.9614Z" fill="#0B8888"/>
<path fill-rule="evenodd" clip-rule="evenodd" d="M36.6222 10.9614C36.6222 17.0152 31.7146 21.9228 25.6608 21.9228H22.8646C22.3444 21.9228 21.9226 21.5011 21.9226 20.9808L21.9226 15.5572C21.9226 15.037 22.3444 14.6152 22.8646 14.6152H27.0069C28.2814 14.6152 29.3146 13.582 29.3146 12.3076V9.61528C29.3146 8.34079 28.2814 7.30761 27.0069 7.30761L22.8646 7.30761C22.3444 7.30761 21.9226 6.88586 21.9226 6.3656L21.9226 0.942007C21.9226 0.421751 22.3444 3.68706e-08 22.8646 8.23529e-08L25.6608 3.26802e-07C31.7146 8.56044e-07 36.6222 4.90759 36.6222 10.9614Z" fill="#63DBC0"/>
</svg>
